<svg height="512" viewBox="0 0 512 512" width="512" xmlns="http://www.w3.org/2000/svg"><g id="Filled_outline" data-name="Filled outline"><path d="m128 112v-8c0-44.183 32.235-80 72-80v32c-19 0-33.6 18.7-30.909 39.6l2.109 16.4z" fill="#f2dec2"/><path d="m280 377.5c0 61.03-57.31 110.5-128 110.5-58.79 0-108.33-34.22-123.34-80.85a96.407 96.407 0 0 1 -4.66-29.65c0-32.63 16.38-71.67 42.43-100.94a34.236 34.236 0 0 0 8.77-22.75v-89.31a76.8 76.8 0 0 1 153.6 0v89.31a34.236 34.236 0 0 0 8.77 22.75c26.05 29.27 42.43 68.31 42.43 100.94z" fill="#ffb531"/><path d="m280 377.5c0 61.03-57.31 110.5-128 110.5-58.79 0-108.33-34.22-123.34-80.85 77.83-23.94 146.98-71.06 200.14-164.21v10.87a34.236 34.236 0 0 0 8.77 22.75c26.05 29.27 42.43 68.31 42.43 100.94z" fill="#fcb12b"/><rect fill="#f07800" height="184" rx="92" width="276" x="212" y="304"/><path d="m351.2 488a55.2 55.2 0 0 1 -55.2-55.2v-73.6a55.2 55.2 0 0 1 55.2-55.2h-1.2a55.2 55.2 0 0 1 55.2 55.2v73.6a55.2 55.2 0 0 1 -55.2 55.2z" fill="#f98500"/><path d="m328 304a80 80 0 0 1 80-80v32a34.7 34.7 0 0 0 -34.7 34.62 35.18 35.18 0 0 0 .36 4.98l1.2 8.4" fill="#f2dec2"/><path d="m152 480c-66.168 0-120-45.981-120-102.5 0-30.508 15.86-68.042 40.405-95.621a42.223 42.223 0 0 0 10.795-28.069v-89.31a67.913 67.913 0 0 1 20.137-48.423 68.785 68.785 0 0 1 117.463 48.423v89.31a42.226 42.226 0 0 0 10.793 28.068 167.859 167.859 0 0 1 14.292 18.555l13.32-8.866a184.189 184.189 0 0 0 -15.66-20.327 26.244 26.244 0 0 1 -6.745-17.43v-89.31a84.562 84.562 0 0 0 -59.262-80.593c2.634-11.407 11.783-19.907 22.462-19.907a8 8 0 0 0 8-8v-32a8 8 0 0 0 -8-8c-31.942 0-60.774 20.832-73.453 53.072l14.89 5.856c9.163-23.3 28.489-39.234 50.563-42.364v16.343c-14.7 3.375-26.53 15.837-30.112 31.668a85.482 85.482 0 0 0 -35.414 3.325 85.114 85.114 0 0 0 -34.431 20.846 83.8 83.8 0 0 0 -24.843 59.754v89.31a26.244 26.244 0 0 1 -6.746 17.431c-27.42 30.81-44.454 71.526-44.454 106.259 0 65.341 61.009 118.5 136 118.5a151.323 151.323 0 0 0 70.09-16.916l-7.433-14.168a135.269 135.269 0 0 1 -62.657 15.084z"/><path d="m200.96 181.5v-17a140.338 140.338 0 0 0 -4.527-36.058l-15.462 4.116a124.335 124.335 0 0 1 3.989 31.942v17z"/><path d="m196.854 295.3 14.989-5.6c-2.165-5.8-4.513-11.377-6.979-16.572a46.123 46.123 0 0 1 -3.9-19.318v-54.81h-16v54.812a62.356 62.356 0 0 0 5.449 26.177c2.266 4.783 4.435 9.934 6.441 15.311z"/><path d="m89.068 298.491c-8.474 25.66-13.335 54.457-13.335 79.009 0 22.173 3.905 43.766 11.293 62.442l14.878-5.884c-6.654-16.823-10.171-36.38-10.171-56.558 0-22.916 4.566-49.885 12.528-73.991z"/><path d="m101.333 181.5h16v51.5h-16z"/><path d="m118.29 148.465-15.883-1.93a149.371 149.371 0 0 0 -1.074 17.965h16a133.4 133.4 0 0 1 .957-16.035z"/><path d="m161.067 352h16v17h-16z"/><path d="m126.933 403h16v17h-16z"/><path d="m396 296h-14.2l-.219-1.533a27.222 27.222 0 0 1 -.28-3.847 26.689 26.689 0 0 1 26.699-26.62 8 8 0 0 0 8-8v-32a8 8 0 0 0 -8-8 88.019 88.019 0 0 0 -85.129 65.632l15.477 4.056a72.014 72.014 0 0 1 61.652-53.245v16.307a42.713 42.713 0 0 0 -34.7 41.87 43.242 43.242 0 0 0 .362 5.38h-61.662a100 100 0 0 0 0 200h92a100 100 0 0 0 0-200zm-92 184a84 84 0 0 1 0-168h4.011a63.053 63.053 0 0 0 -12.751 15.594l13.85 8.011a47.207 47.207 0 0 1 88.09 23.595v73.6a47.2 47.2 0 0 1 -94.4 0v-73.6a47.792 47.792 0 0 1 .653-7.877l-15.78-2.646a63.843 63.843 0 0 0 -.873 10.523v73.6a63.049 63.049 0 0 0 21.233 47.2zm92 0h-4.033a63.049 63.049 0 0 0 21.233-47.2v-73.6a63.049 63.049 0 0 0 -21.233-47.2h4.033a84 84 0 0 1 0 168z"/><path d="m346.476 355.638-5.676-5.638-5.657-5.656c-1.182 1.18-11.543 11.893-11.543 24.056h16c0-4.375 4.632-10.488 6.876-12.762z"/><path d="m323.6 386.8h16v55.2h-16z"/><path d="m459.045 366.831-15.691 3.132c2.311 11.644 5.554 44.615-7.011 57.18l11.314 11.314c9.185-9.186 13.843-24.244 13.843-44.757a151.57 151.57 0 0 0 -2.455-26.869z"/></g></svg>